HIERARCHY
ROOT Hips
{
	OFFSET	0.00	0.00	0.00
	CHANNELS 6 Xposition Yposition Zposition Zrotation Xrotation Yrotation
	JOINT LeftUpLeg
	{
		OFFSET	 0.126116	-0.014019	-0.065224
		CHANNELS 3 Zrotation Xrotation Yrotation
		JOINT LeftLeg
		{
			OFFSET	 0.000000	 0.000000	 0.569914
			CHANNELS 3 Zrotation Xrotation Yrotation
			JOINT LeftFoot
			{
				OFFSET	 0.000000	 0.000000	 0.544423
				CHANNELS 3 Zrotation Xrotation Yrotation
				JOINT LeftToeBase
				{
					OFFSET	 0.000000	 0.000000	 0.207117
					CHANNELS 3 Zrotation Xrotation Yrotation
					End Site
					{
						OFFSET	 0.000000	 0.000000	 0.207117
					}
				}
			}
		}
	}
	JOINT RightUpLeg
	{
		OFFSET	-0.124023	-0.008373	-0.065224
		CHANNELS 3 Zrotation Xrotation Yrotation
		JOINT RightLeg
		{
			OFFSET	 0.000000	 0.000000	 0.570047
			CHANNELS 3 Zrotation Xrotation Yrotation
			JOINT RightFoot
			{
				OFFSET	 0.000000	 0.000000	 0.544354
				CHANNELS 3 Zrotation Xrotation Yrotation
				JOINT RightToeBase
				{
					OFFSET	 0.000000	 0.000000	 0.207540
					CHANNELS 3 Zrotation Xrotation Yrotation
					End Site
					{
						OFFSET	 0.000000	 0.000000	 0.207540
					}
				}
			}
		}
	}
	JOINT Spine
	{
		OFFSET	 0.000184	-0.007763	 0.117403
		CHANNELS 3 Zrotation Xrotation Yrotation
		JOINT Spine1
		{
			OFFSET	 0.000000	 0.000000	 0.137269
			CHANNELS 3 Zrotation Xrotation Yrotation
			JOINT Spine2
			{
				OFFSET	 0.000000	 0.000000	 0.156879
				CHANNELS 3 Zrotation Xrotation Yrotation
				JOINT LeftShoulder
				{
					OFFSET	 0.080501	-0.002496	 0.160144
					CHANNELS 3 Zrotation Xrotation Yrotation
					JOINT LeftArm
					{
						OFFSET	 0.000000	 0.000000	 0.164363
						CHANNELS 3 Zrotation Xrotation Yrotation
						JOINT LeftForeArm
						{
							OFFSET	 0.000000	 0.000000	 0.364576
							CHANNELS 3 Zrotation Xrotation Yrotation
							JOINT LeftHand
							{
								OFFSET	 0.000000	 0.000000	 0.360812
								CHANNELS 3 Zrotation Xrotation Yrotation
								JOINT LeftHandIndex1
								{
									OFFSET	 0.000000	 0.000000	 0.086006
									CHANNELS 3 Zrotation Xrotation Yrotation
									JOINT LeftHandIndex2
									{
										OFFSET	 0.000000	 0.000000	 0.047236
										CHANNELS 3 Zrotation Xrotation Yrotation
										JOINT LeftHandIndex3
										{
											OFFSET	-0.004284	-0.000551	 0.038166
											CHANNELS 3 Zrotation Xrotation Yrotation
											End Site
											{
												OFFSET	-0.004284	-0.000551	 0.038166
											}
										}
									}
								}
							}
						}
					}
				}
				JOINT Neck
				{
					OFFSET	 0.000000	 0.000000	 0.176489
					CHANNELS 3 Zrotation Xrotation Yrotation
					JOINT Head
					{
						OFFSET	 0.000000	-0.001747	 0.077940
						CHANNELS 3 Zrotation Xrotation Yrotation
						End Site
						{
							OFFSET	 0.000000	-0.001747	 0.077940
						}
					}
				}
				JOINT RightShoulder
				{
					OFFSET	-0.080363	 0.000306	 0.159706
					CHANNELS 3 Zrotation Xrotation Yrotation
					JOINT RightArm
					{
						OFFSET	 0.000000	 0.000000	 0.164196
						CHANNELS 3 Zrotation Xrotation Yrotation
						JOINT RightForeArm
						{
							OFFSET	 0.000000	 0.000000	 0.365611
							CHANNELS 3 Zrotation Xrotation Yrotation
							JOINT RightHand
							{
								OFFSET	 0.000000	 0.000000	 0.360648
								CHANNELS 3 Zrotation Xrotation Yrotation
								JOINT RightHandIndex1
								{
									OFFSET	 0.000000	 0.000000	 0.069977
									CHANNELS 3 Zrotation Xrotation Yrotation
									JOINT RightHandIndex2
									{
										OFFSET	 0.000000	 0.000000	 0.052305
										CHANNELS 3 Zrotation Xrotation Yrotation
										JOINT RightHandIndex3
										{
											OFFSET	 0.009002	-0.000782	 0.042196
											CHANNELS 3 Zrotation Xrotation Yrotation
											End Site
											{
												OFFSET	 0.009002	-0.000782	 0.042196
											}
										}
									}
								}
							}
						}
					}
				}
			}
		}
	}
}
MOTION
Frames:    4
Frame Time: 0.03333334
-0.040239	 0.239860	 1.031820	 0.947013	 34.129240	-6.656351	 13.856000	-84.109540	-167.484800	 7.144011	-72.958320	 7.232177	-3.427379	 79.306400	 3.815746	-2.385832	 28.452790	-0.000001	 77.378270	-79.250740	-107.928600	-18.058690	-75.298810	-12.503200	 29.482940	 77.309720	-18.766680	 2.384659	 28.388700	-0.000001	-13.861620	 14.863370	 1.821815	-2.981013	 21.286910	 4.172866	 1.186013	-0.528516	 1.599950	-99.157250	 68.201100	 156.808200	 5.920822	-7.165480	-56.411500	-21.621420	 2.422404	-9.581919	-32.210690	-44.278060	-22.169080	-2.027600	 6.559038	 9.033609	-5.188889	 0.308190	 3.541030	-5.234859	 0.342567	 0.430617	 0.360958	 17.624210	-6.024822	 3.237611	-26.794630	 0.765333	 97.446990	 64.642940	-159.163100	-8.158460	 6.551934	 61.902820	 4.921154	 6.890705	 28.935640	 13.740500	-43.637770	 16.283390	 1.803333	 3.979147	-15.098590	 4.898592	 3.004813	-9.310344	 5.224449	 0.395017	 2.014677
-0.038614	 0.239003	 1.047411	 0.792710	 32.920040	-6.139855	 7.435472	-81.583640	-173.761300	 5.999563	-70.874300	 6.064664	-3.275086	 78.411870	 3.624393	-2.385832	 28.452790	-0.000001	 62.935420	-78.640240	-122.148000	-16.773010	-73.137810	-11.139620	 27.537820	 76.584530	-16.665540	 2.384659	 28.388700	-0.000001	-13.535870	 14.730780	 1.652869	-2.748816	 21.955810	 3.799001	 1.130071	-1.731426	 1.364697	-98.739150	 68.513340	 157.629200	 6.054735	-4.572888	-57.467480	-21.297330	 2.433011	-9.609008	-34.368560	-48.931640	-23.691080	-2.027600	 6.559038	 9.033609	-5.188889	 0.308190	 3.541030	-5.234859	 0.342567	 0.430617	-0.264130	 13.278700	-4.600375	 2.664562	-22.542030	-0.205324	 97.203130	 64.329040	-160.078100	-9.130675	 6.486240	 61.326640	 5.300642	 7.565840	 30.820830	 15.008460	-48.020590	 18.192400	 1.803333	 3.979147	-15.098590	 4.898592	 3.004813	-9.310344	 5.224449	 0.395017	 2.014677
-0.036618	 0.238502	 1.063398	 0.709621	 31.700580	-5.688962	 4.026081	-78.937490	-176.948900	 5.224931	-68.626170	 5.255717	-3.140788	 77.404410	 3.361724	-2.385832	 28.452790	-0.000001	 50.378070	-77.324400	-134.407100	-15.756910	-70.843880	-10.035380	 25.776240	 75.801730	-14.769690	 2.384659	 28.388700	-0.000001	-13.285210	 14.592640	 1.518337	-2.545392	 22.432210	 3.449936	 1.036868	-2.879738	 1.135907	-98.134920	 69.247160	 158.421600	 6.602545	-1.628832	-58.518220	-20.918980	 2.432756	-9.616131	-36.847040	-52.881610	-25.697430	-2.027600	 6.559038	 9.033609	-5.188889	 0.308190	 3.541030	-5.234859	 0.342567	 0.430617	-0.703206	 8.649615	-3.546480	 2.265846	-18.031850	-0.950283	 96.923220	 64.138050	-160.961400	-10.258220	 6.689771	 60.463460	 5.271474	 8.174296	 32.971450	 15.965830	-51.449260	 19.762410	 1.803333	 3.979147	-15.098590	 4.898592	 3.004813	-9.310344	 5.224449	 0.395017	 2.014677
-0.034174	 0.237921	 1.080580	 0.600552	 30.326500	-5.184044	 1.906327	-75.977410	-178.878500	 4.583767	-66.170810	 4.575947	-2.997338	 76.365410	 3.094902	-2.385833	 28.452750	 0.000004	 39.677590	-75.307330	-144.817800	-14.964630	-68.309900	-9.135338	 24.252570	 74.968790	-13.070670	 2.384659	 28.388700	-0.000001	-13.088640	 14.428960	 1.387764	-2.396250	 22.802760	 3.168461	 0.936680	-4.148430	 0.868340	-97.291790	 70.454510	 159.261100	 7.527023	 1.824758	-59.611540	-20.462060	 2.426346	-9.611753	-39.967620	-56.411000	-28.477850	-2.027600	 6.559038	 9.033609	-5.188889	 0.308190	 3.541030	-5.234859	 0.342567	 0.430617	-1.015126	 3.311308	-2.447134	 1.892764	-12.898590	-1.799282	 96.594070	 64.380870	-161.604500	-11.568490	 7.745800	 59.324470	 4.761858	 8.631415	 35.382980	 16.634450	-54.459340	 20.913280	 1.803333	 3.979147	-15.098590	 4.898592	 3.004813	-9.310344	 5.224449	 0.395017	 2.014677
